<svg xmlns="http://www.w3.org/2000/svg" viewBox="0 0 1600 900"><rect width="1600" height="900" fill="#647f71"/><path d="M0 560 180 370l150 175 200-250 160 248 260-275 200 280 190-160 260 184v328H0z" fill="#314c3a"/><path d="M0 680h1600v220H0z" fill="#213a29"/><path d="M520 635h600V420H520z" fill="#8b5734"/><path d="m470 435 350-210 350 210z" fill="#3e2d23"/><path d="M710 635V470h215v165z" fill="#171b17"/><g stroke="#c89d59" stroke-width="18"><path d="M550 555h115M950 555h115M560 490h95M970 490h95"/></g><path d="M0 785c460-125 1080-55 1600-150" fill="none" stroke="#b99958" stroke-width="43"/><text x="800" y="838" fill="#f4e7ba" font-family="Georgia" font-size="56" text-anchor="middle" letter-spacing="8">EMPTY CHICKEN COOP</text></svg>
